<svg id="Layer_1" data-name="Layer 1" xmlns="http://www.w3.org/2000/svg" xmlns:xlink="http://www.w3.org/1999/xlink" viewBox="0 0 717 671"><defs><style>.cls-1{fill:none;}.cls-2{fill:#22313f;}.cls-3{fill:#f5ab35;}.cls-4{clip-path:url(#clip-path);}.cls-5{fill:#fff;}</style><clipPath id="clip-path"><path class="cls-1" d="M194.6539,427.4965V117.7h206.79c39.64,0,75.985,23.52,90.81,60.2839q.584,1.4483,1.1326,2.94c17.0233,46.3084-6.6145,85.5169-9.4835,90.0938A354.0083,354.0083,0,0,0,341.649,302.63C259.5835,340.0189,213.7357,399.3157,194.6539,427.4965Z"/></clipPath></defs><path class="cls-2" d="M195.4442,424.9788V115.1826h206.79c39.64,0,75.985,23.52,90.81,60.2839q.584,1.4482,1.1326,2.94c17.0233,46.3084-6.6145,85.5169-9.4835,90.0937A354.0117,354.0117,0,0,0,342.4393,300.112C260.3738,337.5012,214.526,396.7981,195.4442,424.9788Z"/><path class="cls-3" d="M296.6022,453.43A231.0729,231.0729,0,0,1,478.37,281.1449c35.92,30.3208,48.9049,77.9486,33.1925,116.9638-16.7607,41.6182-58.7829,55.0794-64.8043,56.9014Z"/><g class="cls-4"><rect class="cls-5" x="249.9747" y="237.8254" width="50.579" height="135.931"/><rect class="cls-5" x="315.5693" y="202.262" width="50.579" height="135.931"/><rect class="cls-5" x="380.3736" y="162.7472" width="50.579" height="135.931"/></g><path class="cls-3" d="M108.9541,539.0659c0,9.9849-7.9219,15.7612-23.1055,15.7612H55.9775V497.0634H84.1982c14.4414,0,21.8682,6.024,21.8682,15.0186a13.8848,13.8848,0,0,1-7.6748,12.708C104.8291,526.853,108.9541,531.8042,108.9541,539.0659ZM69.2627,507.1308v13.6158H82.5479c6.52,0,10.0683-2.3106,10.0683-6.8492s-3.5488-6.7666-10.0683-6.7666Zm26.2412,30.5323c0-4.8687-3.7139-7.1792-10.6455-7.1792H69.2627V544.76H84.8584C91.79,544.76,95.5039,542.6142,95.5039,537.6631Z"/><path class="cls-3" d="M114.8975,532.6294c0-13.3682,10.3144-22.8579,24.4257-22.8579s24.3438,9.49,24.3438,22.8579-10.2324,22.8579-24.3438,22.8579S114.8975,545.9975,114.8975,532.6294Zm35.73,0c0-7.6744-4.8681-12.2954-11.3047-12.2954s-11.3877,4.621-11.3877,12.2954,4.9512,12.2954,11.3877,12.2954S150.6279,540.3037,150.6279,532.6294Z"/><path class="cls-3" d="M168.9492,532.6294c0-13.3682,10.3154-22.8579,24.4258-22.8579s24.3428,9.49,24.3428,22.8579-10.2324,22.8579-24.3428,22.8579S168.9492,545.9975,168.9492,532.6294Zm35.7315,0c0-7.6744-4.8692-12.2954-11.3057-12.2954s-11.3877,4.621-11.3877,12.2954,4.9512,12.2954,11.3877,12.2954S204.6807,540.3037,204.6807,532.6294Z"/><path class="cls-3" d="M222.6709,549.1333l4.5391-10.0674a33.9739,33.9739,0,0,0,19.0615,6.0239c7.9219,0,11.14-2.6406,11.14-6.189,0-10.81-33.5849-3.3833-33.5849-24.8383,0-9.82,7.9218-17.9893,24.3427-17.9893,7.2618,0,14.69,1.7329,20.0528,5.1162l-4.126,10.15a32.6261,32.6261,0,0,0-16.0088-4.5385c-7.9219,0-10.9746,2.9707-10.9746,6.6015,0,10.645,33.585,3.3008,33.585,24.5083,0,9.6548-8.0049,17.9068-24.5088,17.9068C237.0293,555.8174,227.7871,553.0942,222.6709,549.1333Z"/><path class="cls-3" d="M307.585,552.6816c-2.6407,1.898-6.52,2.8057-10.4805,2.8057-10.48,0-16.5859-5.3638-16.5859-15.9263V521.3242h-6.85v-9.9024h6.85v-10.81h12.873v10.81h11.0566v9.9024H293.3916V539.396c0,3.7959,2.0625,5.8589,5.5283,5.8589a8.6751,8.6751,0,0,0,5.1983-1.65Z"/><path class="cls-3" d="M310.1436,532.6294c0-13.3682,10.3144-22.8579,24.4257-22.8579s24.3438,9.49,24.3438,22.8579-10.2324,22.8579-24.3438,22.8579S310.1436,545.9975,310.1436,532.6294Zm35.73,0c0-7.6744-4.8681-12.2954-11.3047-12.2954s-11.3877,4.621-11.3877,12.2954,4.9512,12.2954,11.3877,12.2954S345.874,540.3037,345.874,532.6294Z"/><path class="cls-3" d="M364.1953,532.6294c0-13.3682,10.3154-22.8579,24.7559-22.8579,9.3252,0,16.6689,4.0434,19.8877,11.3051l-9.9854,5.3638c-2.3935-4.2085-5.9414-6.1064-9.9853-6.1064-6.5186,0-11.6348,4.5385-11.6348,12.2954s5.1162,12.2954,11.6348,12.2954c4.0439,0,7.5918-1.8155,9.9853-6.1065l9.9854,5.4463c-3.2188,7.0967-10.5625,11.2227-19.8877,11.2227C374.5107,555.4873,364.1953,545.9975,364.1953,532.6294Z"/><path class="cls-3" d="M434.9971,537.4155l-6.1885,6.1064v11.3052H415.9355V493.5976h12.8731v34.6582l18.8144-17.8242h15.3487l-18.4844,18.8145,20.1348,25.581H449.0264Z"/><path class="cls-3" d="M466.6045,526.44H489.958v10.3149H466.6045Z"/><path class="cls-3" d="M501.0146,497.0634h13.3692v57.7637H501.0146Z"/><path class="cls-3" d="M572.5586,529.4111v25.416H559.6855V531.3916c0-7.1792-3.3007-10.48-8.9951-10.48-6.1884,0-10.6445,3.7959-10.6445,11.9653v21.95h-12.873V510.4316h12.2949V515.63c3.4668-3.7959,8.665-5.8588,14.6894-5.8588C564.6367,509.7715,572.5586,515.8779,572.5586,529.4111Z"/><path class="cls-3" d="M598.3057,511.4218h11.3886v9.9024H598.6357v33.5029h-12.873V521.3242h-6.8486v-9.9024h6.8486v-1.98c0-9.9849,6.1074-16.5039,17.1641-16.5039,3.6308,0,7.4277.7426,9.82,2.393l-3.3828,9.3247a9.0167,9.0167,0,0,0-5.1993-1.5678c-3.7959,0-5.8593,2.063-5.8593,6.4365Z"/><path class="cls-3" d="M612.2539,532.6294c0-13.3682,10.3154-22.8579,24.4258-22.8579s24.3428,9.49,24.3428,22.8579S650.79,555.4873,636.68,555.4873,612.2539,545.9975,612.2539,532.6294Zm35.7315,0c0-7.6744-4.8692-12.2954-11.3057-12.2954s-11.3877,4.621-11.3877,12.2954,4.9512,12.2954,11.3877,12.2954S647.9854,540.3037,647.9854,532.6294Z"/></svg>